<?xml version="1.0" encoding="UTF-8"?>
<svg version="1.1" viewBox="0 0 2048 2048" width="1280" height="1280" xmlns="http://www.w3.org/2000/svg">
<path transform="translate(135,97)" d="m0 0h1776l22 2 14 3 19 7 18 10 10 8 12 11 5 5 11 14 8 13 8 17 8 27h2v1375h-3l-1 9-8 24-11 21-12 16-9 10-14 12-16 10-15 7-20 6-14 2-13 1h-740l6 16 47 141 1 4h101l11 1 11 4 11 8 6 9 4 9 1 4v12l-3 11-8 12-10 7-7 3-9 2h-621l-12-3-9-6-7-7-7-14-1-4v-13l4-12 6-9 8-7 8-4 13-3 106-1 48-144 5-16h-743l-24-3-17-5-12-5-18-11-13-11-7-6v-2h-2l-11-14-9-14-10-21-7-24-2-8v-1363l2-6 7-25 12-25 11-15 9-11 11-10 12-9 17-10 16-6 17-4zm7 82-16 1-11 4-11 7-7 7-7 11-5 11-3 15-1 978h1883l2-2v-973l-2-13-3-9-7-14-11-12-12-7-9-3-11-1zm-60 1116-1 198v63l2 21 4 13 8 14 11 11 16 8 8 2h1786l12-3 12-6 10-9 7-10 5-10 3-12 1-7v-273zm1964 290 1 2zm-1084 122-51 153-2 5v3h230l-1-6-14-41-38-114z"/>
<path transform="translate(195,561)" d="m0 0 12 1 10 4 9 6 6 7 5 10 2 8v504l-3 13-7 11-8 7-10 5-9 2h-9l-11-3-10-6-7-8-6-11-2-10v-502l3-12 5-9 7-8 11-6z"/>
<path transform="translate(1022,1343)" d="m0 0 25 2 20 6 20 11 14 11 11 11 11 16 9 19 5 19 2 22-2 17-4 16-5 13-8 15-14 17-11 10-10 7-15 8-19 6-8 2-11 1h-17l-16-2-21-7-17-9-11-9-10-9-9-11-8-13-7-15-5-17-2-17v-10l3-21 7-21 10-18 12-14 5-5 9-8 14-9 15-7 17-5zm-5 83-9 3-10 9-4 7-2 8v11l5 12 6 7 9 5 9 2h7l10-3 8-5 6-8 4-11v-10l-3-9-5-8-7-6-10-4z"/>
<path transform="translate(193,253)" d="m0 0h11l10 3 10 6 9 10 4 8 2 9v168l-3 13-8 12-11 8-8 3-12 2-14-3-10-6-7-7-6-10-3-12v-167l3-12 7-11 9-8 8-4z"/>
</svg>
